<svg id="Layer_1" data-name="Layer 1" xmlns="http://www.w3.org/2000/svg" xmlns:xlink="http://www.w3.org/1999/xlink" viewBox="0 0 1201.3 405.24"><defs><style>.cls-1{fill:url(#linear-gradient);}.cls-2{fill:#00582f;}</style><linearGradient id="linear-gradient" x1="96.72" y1="459.29" x2="401.62" y2="459.29" gradientUnits="userSpaceOnUse"><stop offset="0" stop-color="#00582f"/><stop offset="0.34" stop-color="#297d36"/><stop offset="1" stop-color="#75c044"/></linearGradient></defs><title>NSAWO-01</title><path class="cls-1" d="M214.11,314.57,308,256.67l93.59,57.89V604L308,661.91V343.51l-47,28.95q-35.38,22.84-41.17,33.29t-5.79,53.55V661.91L120.2,604l.64-231.56A51.38,51.38,0,0,0,108.62,340,53.3,53.3,0,0,0,96.72,329l117.39-72.36Z" transform="translate(-96.72 -256.67)"/><path class="cls-2" d="M416.63,443.34h45.1l58.86,86.48V443.34h45.53V599.66H520.6l-58.54-85.83v85.83H416.63Z" transform="translate(-96.72 -256.67)"/><path class="cls-2" d="M589.8,547.94l46-2.88q1.49,11.2,6.08,17.06,7.46,9.49,21.33,9.49,10.34,0,15.94-4.85t5.6-11.25q0-6.08-5.33-10.88t-24.74-9.06q-31.78-7.14-45.32-19t-13.65-30.18a41,41,0,0,1,7-22.76q7-10.72,21-16.85t38.44-6.13q30,0,45.69,11.14t18.71,35.45L681,489.94q-1.82-10.56-7.62-15.35t-16-4.8q-8.42,0-12.69,3.57a11,11,0,0,0-4.26,8.69q0,3.73,3.52,6.72t16.21,5.76q31.67,6.83,45.37,13.81t19.94,17.33a43.94,43.94,0,0,1,6.24,23.14,49.55,49.55,0,0,1-8.32,27.72,52,52,0,0,1-23.25,19.25q-14.93,6.56-37.64,6.56-39.88,0-55.23-15.35T589.8,547.94Z" transform="translate(-96.72 -256.67)"/><path class="cls-2" d="M852,573.85H797.19l-7.62,25.8H740.25L799,443.34h52.69l58.74,156.32H859.85Zm-10-33.8-17.25-56.19-17.07,56.19Z" transform="translate(-96.72 -256.67)"/><path class="cls-2" d="M911.39,443.34h45.88l16.52,87.51L998,443.34h45.71l24.24,87.39,16.54-87.39h45.64l-34.46,156.32h-47.37l-27.42-98.42-27.31,98.42H946.17Z" transform="translate(-96.72 -256.67)"/><path class="cls-2" d="M1136.06,521.61q0-38.28,21.33-59.61t59.39-21.33q39,0,60.14,21t21.11,58.7q0,27.4-9.23,44.94a65.74,65.74,0,0,1-26.66,27.29q-17.43,9.76-43.45,9.76-26.44,0-43.77-8.42t-28.09-26.66Q1136.05,549,1136.06,521.61Zm48.3.21q0,23.67,8.8,34t23.94,10.34q15.57,0,24.1-10.13t8.53-36.36q0-22.07-8.9-32.26t-24.15-10.18q-14.61,0-23.46,10.34T1184.36,521.82Z" transform="translate(-96.72 -256.67)"/></svg>