<svg width="969" height="254" viewBox="0 0 969 254" fill="none" xmlns="http://www.w3.org/2000/svg">
<path d="M92.0268 42.3601L165.631 0.021936L239 42.3528V254H165.631V63.5219L128.786 84.691C110.295 95.8252 99.537 103.939 96.5109 109.034C93.4849 114.128 91.9719 127.18 91.9719 148.191V254H18.4069L18.9086 84.6764C18.7578 75.973 15.3717 67.5885 9.3289 60.9553C6.67697 57.8463 3.53098 55.1338 0 52.9118L92.0268 0V42.3601Z" fill="#11A44C"/>
<path d="M260 176.29L306 173.41C306.993 180.877 309.02 186.563 312.08 190.47C317.053 196.797 324.163 199.96 333.41 199.96C340.303 199.96 345.617 198.343 349.35 195.11C353.083 191.877 354.95 188.127 354.95 183.86C354.95 179.807 353.173 176.18 349.62 172.98C346.067 169.78 337.82 166.76 324.88 163.92C303.693 159.16 288.587 152.827 279.56 144.92C270.533 137.013 265.983 126.953 265.91 114.74C265.94 106.628 268.376 98.7071 272.91 91.98C277.577 84.8333 284.577 79.2167 293.91 75.13C303.243 71.0433 316.057 69 332.35 69C352.35 69 367.58 72.7133 378.04 80.14C388.5 87.5667 394.737 99.3833 396.75 115.59L351.2 118.29C349.987 111.25 347.447 106.133 343.58 102.94C339.713 99.7467 334.38 98.1467 327.58 98.14C321.967 98.14 317.737 99.33 314.89 101.71C313.564 102.738 312.491 104.055 311.753 105.561C311.015 107.068 310.63 108.723 310.63 110.4C310.63 112.887 311.803 115.127 314.15 117.12C316.497 119.113 321.9 121.033 330.36 122.88C351.473 127.433 366.597 132.037 375.73 136.69C384.863 141.343 391.51 147.12 395.67 154.02C399.854 161.006 402.014 169.017 401.91 177.16C401.957 187.022 399.06 196.674 393.59 204.88C387.914 213.454 379.823 220.153 370.34 224.13C360.387 228.503 347.84 230.69 332.7 230.69C306.113 230.69 287.703 225.573 277.47 215.34C267.237 205.107 261.413 192.09 260 176.29Z" fill="#11A44C"/>
<path d="M522.2 202.2H467.39L459.77 228H410.45L469.2 71.69H521.89L580.63 228.01H530.05L522.2 202.2ZM512.2 168.4L494.95 112.21L477.88 168.4H512.2Z" fill="#11A44C"/>
<path d="M581.59 71.69H627.47L643.99 159.2L668.2 71.69H713.91L738.15 159.08L754.69 71.69H800.33L765.87 228.01H718.5L691.08 129.59L663.77 228.01H616.37L581.59 71.69Z" fill="#11A44C"/>
<path d="M806.26 149.96C806.26 124.44 813.37 104.57 827.59 90.35C841.81 76.13 861.607 69.02 886.98 69.02C912.98 69.02 933.027 76.02 947.12 90.02C961.213 104.02 968.25 123.587 968.23 148.72C968.23 166.987 965.153 181.967 959 193.66C953.006 205.192 943.729 214.689 932.34 220.95C920.72 227.457 906.237 230.71 888.89 230.71C871.263 230.71 856.673 227.903 845.12 222.29C833.567 216.677 824.203 207.79 817.03 195.63C809.843 183.443 806.253 168.22 806.26 149.96ZM854.56 150.17C854.56 165.95 857.493 177.283 863.36 184.17C869.227 191.057 877.207 194.503 887.3 194.51C897.68 194.51 905.713 191.133 911.4 184.38C917.087 177.627 919.93 165.507 919.93 148.02C919.93 133.307 916.963 122.553 911.03 115.76C905.097 108.967 897.047 105.573 886.88 105.58C877.14 105.58 869.32 109.027 863.42 115.92C857.52 122.813 854.567 134.23 854.56 150.17Z" fill="#11A44C"/>
</svg>
