<svg width="1041" height="389" viewBox="0 0 1041 389" fill="none" xmlns="http://www.w3.org/2000/svg">
<path d="M91.2567 45.8843L164.245 0.023761L237 45.8764V275.132L164.245 321V68.8066L127.708 91.7369C109.372 103.797 98.704 112.587 95.7033 118.105C92.7026 123.623 91.2023 137.761 91.2023 160.52V321L18.2529 275.132L18.7504 91.7211C18.6008 82.2936 15.2431 73.2115 9.25083 66.0265C6.62109 62.6588 3.50143 59.7206 0 57.3138L91.2567 0V45.8843Z" fill="url(#paint0_linear)"/>
<path d="M248 211.776L288.193 208.588C289.061 216.854 290.832 223.149 293.506 227.474C297.852 234.478 304.064 237.98 312.144 237.98C318.167 237.98 322.809 236.19 326.071 232.611C329.334 229.031 330.965 224.88 330.965 220.157C330.965 215.669 329.412 211.654 326.307 208.112C323.203 204.569 315.997 201.226 304.69 198.082C286.178 192.812 272.978 185.801 265.091 177.048C257.204 168.295 253.228 157.158 253.164 143.637C253.191 134.656 255.319 125.887 259.28 118.44C263.358 110.528 269.474 104.31 277.63 99.7863C285.785 95.2621 296.981 93 311.217 93C328.693 93 342 97.1109 351.14 105.333C360.28 113.554 365.729 126.636 367.488 144.578L327.688 147.567C326.628 139.773 324.408 134.109 321.03 130.574C317.651 127.038 312.991 125.267 307.049 125.26C302.145 125.26 298.449 126.577 295.961 129.212C294.803 130.35 293.865 131.808 293.22 133.475C292.575 135.143 292.239 136.975 292.239 138.832C292.239 141.585 293.264 144.065 295.315 146.272C297.365 148.478 302.086 150.604 309.478 152.648C327.927 157.689 341.141 162.785 349.122 167.937C357.102 173.088 362.91 179.483 366.544 187.122C370.2 194.856 372.088 203.725 371.997 212.739C372.038 223.657 369.507 234.342 364.727 243.427C359.767 252.919 352.698 260.335 344.412 264.738C335.715 269.579 324.752 272 311.523 272C288.292 272 272.206 266.336 263.265 255.007C254.323 243.678 249.235 229.268 248 211.776Z" fill="#079A42"/>
<path d="M470.842 244.436H422.853L416.182 272.989H373L424.438 100H470.571L522 273H477.715L470.842 244.436ZM462.087 207.029L446.983 144.844L432.038 207.029H462.087Z" fill="#079A42"/>
<path d="M522 100H562.062L576.487 196.848L597.626 100H637.54L658.705 196.715L673.148 100H713L682.91 273H641.547L617.605 164.078L593.758 273H552.369L522 100Z" fill="#079A42"/>
<path d="M723 193.605C723 165.353 729.233 143.356 741.7 127.614C754.167 111.871 771.523 104 793.768 104C816.562 104 834.137 111.749 846.493 127.248C858.848 142.747 865.018 164.408 865 192.232C865 212.455 862.303 229.038 856.908 241.984C851.653 254.75 843.52 265.263 833.535 272.195C823.348 279.398 810.65 283 795.442 283C779.989 283 767.198 279.893 757.069 273.679C746.94 267.464 738.731 257.626 732.442 244.164C726.141 230.673 722.994 213.82 723 193.605ZM765.345 193.838C765.345 211.307 767.917 223.854 773.06 231.478C778.203 239.102 785.199 242.917 794.048 242.925C803.148 242.925 810.191 239.186 815.177 231.71C820.162 224.234 822.655 210.816 822.655 191.457C822.655 175.169 820.054 163.264 814.852 155.744C809.651 148.223 802.593 144.467 793.68 144.474C785.141 144.474 778.285 148.29 773.112 155.921C767.94 163.552 765.351 176.191 765.345 193.838Z" fill="#079A42"/>
<defs>
<linearGradient id="paint0_linear" x1="-8.88816e-08" y1="152.567" x2="237.023" y2="152.567" gradientUnits="userSpaceOnUse">
<stop stop-color="#079A42"/>
<stop offset="0.34" stop-color="#11A44C"/>
<stop offset="1" stop-color="#11A44C"/>
</linearGradient>
</defs>
</svg>
