<svg xmlns="http://www.w3.org/2000/svg" xmlns:xlink="http://www.w3.org/1999/xlink" width="3000" height="2000" viewBox="0 0 3000 2000">
  <defs>
    <linearGradient id="linear-gradient" x1="0.871" y1="1.163" x2="0.129" y2="-0.163" gradientUnits="objectBoundingBox">
      <stop offset="0" stop-color="#013220"/>
      <stop offset="1" stop-color="#0e0f12"/>
    </linearGradient>
    <clipPath id="clip-Astro_background_">
      <rect width="3000" height="2000"/>
    </clipPath>
  </defs>
  <g id="Astro_background_" data-name="Astro background " clip-path="url(#clip-Astro_background_)">
    <rect width="3000" height="2000" fill="#fff"/>
    <g id="background">
      <rect id="Rectangle_1" data-name="Rectangle 1" width="3026.684" height="2017.789" transform="translate(-13.342 -8.895)" fill="url(#linear-gradient)"/>
    </g>
    <g id="graphic">
      <g id="Group_109" data-name="Group 109">
        <g id="Group_1" data-name="Group 1" opacity="0.36" style="mix-blend-mode: multiply;isolation: isolate">
          <line id="Line_1" data-name="Line 1" x1="1798.007" y2="1078.966" transform="translate(-182.103 881.183)" fill="none" stroke="#000" stroke-miterlimit="10" stroke-width="5"/>
          <line id="Line_2" data-name="Line 2" x1="1798.007" y2="1078.966" transform="translate(-170.11 901.168)" fill="none" stroke="#707070" stroke-miterlimit="10" stroke-width="5"/>
          <line id="Line_3" data-name="Line 3" x1="1798.007" y2="1078.966" transform="translate(-158.117 921.154)" fill="none" stroke="#707070" stroke-miterlimit="10" stroke-width="5"/>
          <line id="Line_4" data-name="Line 4" x1="1798.007" y2="1078.966" transform="translate(-146.124 941.139)" fill="none" stroke="#707070" stroke-miterlimit="10" stroke-width="5"/>
          <line id="Line_5" data-name="Line 5" x1="1798.007" y2="1078.966" transform="translate(-134.131 961.124)" fill="none" stroke="#707070" stroke-miterlimit="10" stroke-width="5"/>
          <line id="Line_6" data-name="Line 6" x1="1798.007" y2="1078.966" transform="translate(-122.138 981.109)" fill="none" stroke="#707070" stroke-miterlimit="10" stroke-width="5"/>
          <line id="Line_7" data-name="Line 7" x1="1798.007" y2="1078.966" transform="translate(-110.146 1001.095)" fill="none" stroke="#707070" stroke-miterlimit="10" stroke-width="5"/>
        </g>
        <g id="Group_2" data-name="Group 2" opacity="0.36" style="mix-blend-mode: multiply;isolation: isolate">
          <line id="Line_8" data-name="Line 8" x1="546.46" y2="327.926" transform="translate(2534.908 248.855)" fill="none" stroke="#000" stroke-miterlimit="10" stroke-width="5"/>
          <line id="Line_9" data-name="Line 9" x1="546.46" y2="327.926" transform="translate(2546.901 268.84)" fill="none" stroke="#707070" stroke-miterlimit="10" stroke-width="5"/>
          <line id="Line_10" data-name="Line 10" x1="546.46" y2="327.926" transform="translate(2558.894 288.825)" fill="none" stroke="#707070" stroke-miterlimit="10" stroke-width="5"/>
          <line id="Line_11" data-name="Line 11" x1="546.46" y2="327.926" transform="translate(2570.887 308.81)" fill="none" stroke="#707070" stroke-miterlimit="10" stroke-width="5"/>
          <line id="Line_12" data-name="Line 12" x1="546.46" y2="327.926" transform="translate(2582.88 328.796)" fill="none" stroke="#707070" stroke-miterlimit="10" stroke-width="5"/>
          <line id="Line_13" data-name="Line 13" x1="546.46" y2="327.926" transform="translate(2594.873 348.781)" fill="none" stroke="#707070" stroke-miterlimit="10" stroke-width="5"/>
          <line id="Line_14" data-name="Line 14" x1="546.46" y2="327.926" transform="translate(2606.866 368.766)" fill="none" stroke="#707070" stroke-miterlimit="10" stroke-width="5"/>
        </g>
        <g id="Group_3" data-name="Group 3" opacity="0.36" style="mix-blend-mode: multiply;isolation: isolate">
          <line id="Line_15" data-name="Line 15" x1="445.975" y2="267.626" transform="translate(103.061 -160.27)" fill="none" stroke="#000" stroke-miterlimit="10" stroke-width="5"/>
          <line id="Line_16" data-name="Line 16" x1="445.975" y2="267.626" transform="translate(115.054 -140.285)" fill="none" stroke="#707070" stroke-miterlimit="10" stroke-width="5"/>
          <line id="Line_17" data-name="Line 17" x1="445.975" y2="267.626" transform="translate(127.047 -120.299)" fill="none" stroke="#707070" stroke-miterlimit="10" stroke-width="5"/>
          <line id="Line_18" data-name="Line 18" x1="445.975" y2="267.626" transform="translate(139.04 -100.314)" fill="none" stroke="#707070" stroke-miterlimit="10" stroke-width="5"/>
          <line id="Line_19" data-name="Line 19" x1="445.975" y2="267.626" transform="translate(151.033 -80.329)" fill="none" stroke="#707070" stroke-miterlimit="10" stroke-width="5"/>
          <line id="Line_20" data-name="Line 20" x1="445.975" y2="267.626" transform="translate(163.026 -60.344)" fill="none" stroke="#707070" stroke-miterlimit="10" stroke-width="5"/>
          <line id="Line_21" data-name="Line 21" x1="445.975" y2="267.626" transform="translate(175.019 -40.358)" fill="none" stroke="#707070" stroke-miterlimit="10" stroke-width="5"/>
        </g>
        <g id="Group_4" data-name="Group 4">
          <path id="Path_1" data-name="Path 1" d="M2123.377,698.967l23.16,199.63L2331,978.354l-23.158-199.616Z" fill="#94a9ba"/>
          <path id="Path_2" data-name="Path 2" d="M2469.146,658.852l23.16,199.63L2331,978.354l-23.158-199.616Z" fill="#a6bed6"/>
          <path id="Path_3" data-name="Path 3" d="M2469.147,658.859l-161.3,119.872-184.465-79.758v-.014l161.3-119.872,184.465,79.758Z" fill="#78909c"/>
        </g>
        <g id="Group_5" data-name="Group 5">
          <path id="Path_4" data-name="Path 4" d="M1832.576,349.494l79.232,60.317,91.852-38.459-79.227-60.313Z" fill="#94a9ba"/>
          <path id="Path_5" data-name="Path 5" d="M1937.047,212.26l79.232,60.317-12.62,98.776-79.227-60.313Z" fill="#a6bed6"/>
          <path id="Path_6" data-name="Path 6" d="M1937.05,212.262l-12.62,98.776L1832.579,349.5l-.005,0,12.62-98.776,91.852-38.459Z" fill="#78909c"/>
        </g>
        <g id="Group_6" data-name="Group 6">
          <path id="Path_7" data-name="Path 7" d="M1533.3,1122.917l-103.675,110.227,43.622,144.9,103.668-110.22Z" fill="#94a9ba"/>
          <path id="Path_8" data-name="Path 8" d="M1724.216,1302.487,1620.54,1412.714l-147.3-34.672,103.668-110.22Z" fill="#a6bed6"/>
          <path id="Path_9" data-name="Path 9" d="M1724.212,1302.491l-147.3-34.672-43.622-144.9.007-.008,147.3,34.672,43.622,144.9Z" fill="#78909c"/>
        </g>
        <path id="Path_10" data-name="Path 10" d="M1980.982,583.234l-27.1,28.814-38.5-9.063,27.1-28.812Z" fill="#fecb00"/>
        <g id="Group_7" data-name="Group 7">
          <path id="Path_11" data-name="Path 11" d="M1951.644,1244.545l19.627,31.428-17.4,32.711-19.625-31.426Z" fill="#94a9ba"/>
          <path id="Path_12" data-name="Path 12" d="M1897.209,1278.54l19.627,31.428,37.031-1.283-19.625-31.426Z" fill="#a6bed6"/>
          <path id="Path_13" data-name="Path 13" d="M1897.21,1278.541l37.031-1.283,17.4-32.711v0l-37.031,1.283-17.4,32.711Z" fill="#78909c"/>
        </g>
        <g id="Group_8" data-name="Group 8">
          <path id="Path_14" data-name="Path 14" d="M472.653,1530.729l19.627,31.428-17.4,32.711-19.626-31.426Z" fill="#94a9ba"/>
          <path id="Path_15" data-name="Path 15" d="M418.218,1564.724l19.627,31.428,37.031-1.283-19.626-31.426Z" fill="#a6bed6"/>
          <path id="Path_16" data-name="Path 16" d="M418.218,1564.725l37.031-1.283,17.4-32.711v0l-37.031,1.283-17.4,32.711Z" fill="#78909c"/>
        </g>
        <g id="Group_9" data-name="Group 9">
          <path id="Path_17" data-name="Path 17" d="M1799.406,765.165l79.334,2.042,37.9,69.727-79.329-2.042Z" fill="#94a9ba"/>
          <path id="Path_18" data-name="Path 18" d="M1795.868,902.576l79.334,2.042,41.436-67.685-79.329-2.042Z" fill="#a6bed6"/>
          <path id="Path_19" data-name="Path 19" d="M1795.871,902.576l41.436-67.685-37.9-69.727h-.005l-41.436,67.685,37.9,69.727Z" fill="#78909c"/>
        </g>
        <g id="Group_10" data-name="Group 10">
          <path id="Path_20" data-name="Path 20" d="M2258.22,1274.76l74.4,52.438-8.213,90.651-74.395-52.435Z" fill="#94a9ba"/>
          <path id="Path_21" data-name="Path 21" d="M2167.394,1403.624l74.4,52.438,82.613-38.213-74.395-52.435Z" fill="#a6bed6"/>
          <path id="Path_22" data-name="Path 22" d="M2167.4,1403.626l82.613-38.213,8.213-90.651-.005,0-82.613,38.213-8.213,90.651Z" fill="#78909c"/>
        </g>
        <g id="Group_11" data-name="Group 11">
          <path id="Path_23" data-name="Path 23" d="M2094.072,770.179l-62.425,50.453,12.481,79.288,62.421-50.45Z" fill="#94a9ba"/>
          <path id="Path_24" data-name="Path 24" d="M2181.459,878.3l-62.425,50.453-74.906-28.835,62.421-50.45Z" fill="#a6bed6"/>
          <path id="Path_25" data-name="Path 25" d="M2181.457,878.3l-74.906-28.835-12.481-79.288,0,0,74.906,28.835,12.481,79.288Z" fill="#78909c"/>
        </g>
        <g id="Group_12" data-name="Group 12">
          <path id="Path_26" data-name="Path 26" d="M2093.406,567.035l-1.945,23.487,19.367,13.428,1.945-23.485Z" fill="#94a9ba"/>
          <path id="Path_27" data-name="Path 27" d="M2134.086,570.4l-1.945,23.487-21.313,10.059,1.945-23.485Z" fill="#a6bed6"/>
          <path id="Path_28" data-name="Path 28" d="M2134.086,570.406l-21.313,10.059-19.367-13.428v0l21.313-10.059,19.367,13.428Z" fill="#78909c"/>
        </g>
        <g id="Group_13" data-name="Group 13">
          <path id="Path_29" data-name="Path 29" d="M799.775,1764.846l21.6-120.669-93.7-79.039-21.6,120.661Z" fill="#94a9ba"/>
          <path id="Path_30" data-name="Path 30" d="M590.771,1727.438l21.6-120.669,115.3-41.63-21.6,120.661Z" fill="#a6bed6"/>
          <path id="Path_31" data-name="Path 31" d="M590.771,1727.433l115.3-41.63,93.7,79.039v.008l-115.3,41.63-93.7-79.039Z" fill="#78909c"/>
        </g>
        <g id="Group_14" data-name="Group 14">
          <path id="Path_32" data-name="Path 32" d="M280.137,1819.811l-80.62,29.235-14.992,84.437,80.615-29.233Z" fill="#94a9ba"/>
          <path id="Path_33" data-name="Path 33" d="M330.773,1959.45l-80.62,29.235-65.628-55.2,80.615-29.233Z" fill="#a6bed6"/>
          <path id="Path_34" data-name="Path 34" d="M330.771,1959.451l-65.628-55.2,14.992-84.437.006,0,65.628,55.2-14.992,84.437Z" fill="#78909c"/>
        </g>
        <g id="Group_15" data-name="Group 15">
          <path id="Path_35" data-name="Path 35" d="M1219.006,1621.061l79.946-46.137.017-92.3-79.94,46.134Z" fill="#94a9ba"/>
          <path id="Path_36" data-name="Path 36" d="M1139.094,1482.59l79.946-46.137,79.929,46.167-79.94,46.134Z" fill="#a6bed6"/>
          <path id="Path_37" data-name="Path 37" d="M1139.1,1482.589l79.929,46.167-.017,92.3-.005,0-79.929-46.167.017-92.3Z" fill="#78909c"/>
        </g>
        <g id="Group_16" data-name="Group 16">
          <path id="Path_38" data-name="Path 38" d="M996.07,1476.416l-5.933-21.809,15.92-16.043,5.933,21.807Z" fill="#94a9ba"/>
          <path id="Path_39" data-name="Path 39" d="M1033.844,1466.139l-5.933-21.809-21.854-5.766,5.933,21.807Z" fill="#a6bed6"/>
          <path id="Path_40" data-name="Path 40" d="M1033.844,1466.138l-21.854-5.766-15.92,16.043v0l21.854,5.766,15.92-16.043Z" fill="#78909c"/>
        </g>
        <g id="Group_17" data-name="Group 17">
          <path id="Path_41" data-name="Path 41" d="M464.2,1821.983l-28.044-13.955-1.936-31.265,28.042,13.954Z" fill="#94a9ba"/>
          <path id="Path_42" data-name="Path 42" d="M488.369,1773.41l-28.044-13.955-26.108,17.309,28.042,13.954Z" fill="#a6bed6"/>
          <path id="Path_43" data-name="Path 43" d="M488.368,1773.409l-26.108,17.309,1.936,31.265h0l26.108-17.309-1.936-31.265Z" fill="#78909c"/>
        </g>
        <g id="Group_18" data-name="Group 18">
          <path id="Path_44" data-name="Path 44" d="M1000.639,1783.185l-45.976-15.152-9.866-47.392,45.973,15.151Z" fill="#94a9ba"/>
          <path id="Path_45" data-name="Path 45" d="M1026.882,1703.552,980.906,1688.4l-36.11,32.241,45.973,15.151Z" fill="#a6bed6"/>
          <path id="Path_46" data-name="Path 46" d="M1026.88,1703.552l-36.11,32.241,9.866,47.392h0l36.11-32.241-9.866-47.392Z" fill="#78909c"/>
        </g>
        <g id="Group_19" data-name="Group 19">
          <path id="Path_47" data-name="Path 47" d="M822.33,1404.828,788.1,1361.111l20.747-51.5,34.225,43.714Z" fill="#94a9ba"/>
          <path id="Path_48" data-name="Path 48" d="M898.05,1345.545l-34.227-43.717-54.973,7.783,34.225,43.714Z" fill="#a6bed6"/>
          <path id="Path_49" data-name="Path 49" d="M898.049,1345.544l-54.973,7.783-20.747,51.5,0,0,54.974-7.783,20.747-51.5Z" fill="#78909c"/>
        </g>
        <g id="Group_20" data-name="Group 20">
          <path id="Path_50" data-name="Path 50" d="M829.421,1728.41l45.337-18.484,6.661-48.5L836.085,1679.9Z" fill="#94a9ba"/>
          <path id="Path_51" data-name="Path 51" d="M797.406,1649.885l45.337-18.484,38.676,30.021L836.085,1679.9Z" fill="#a6bed6"/>
          <path id="Path_52" data-name="Path 52" d="M797.408,1649.884l38.676,30.021-6.661,48.5h0l-38.676-30.021,6.661-48.5Z" fill="#78909c"/>
        </g>
        <g id="Group_21" data-name="Group 21">
          <path id="Path_53" data-name="Path 53" d="M794.067,1847.174l5.269-13.375-8.949-11.25-5.268,13.374Z" fill="#94a9ba"/>
          <path id="Path_54" data-name="Path 54" d="M770.9,1838.048l5.269-13.375,14.218-2.125-5.268,13.374Z" fill="#a6bed6"/>
          <path id="Path_55" data-name="Path 55" d="M770.9,1838.048l14.218-2.125,8.949,11.25h0l-14.218,2.125-8.949-11.25Z" fill="#78909c"/>
        </g>
        <g id="Group_22" data-name="Group 22">
          <path id="Path_56" data-name="Path 56" d="M249.22,1807.354l5.269-13.375-8.949-11.25-5.268,13.374Z" fill="#94a9ba"/>
          <path id="Path_57" data-name="Path 57" d="M226.054,1798.229l5.269-13.375,14.218-2.125-5.268,13.374Z" fill="#a6bed6"/>
          <path id="Path_58" data-name="Path 58" d="M226.054,1798.228l14.218-2.125,8.949,11.25h0L235,1809.48l-8.949-11.25Z" fill="#78909c"/>
        </g>
        <g id="Group_23" data-name="Group 23">
          <path id="Path_59" data-name="Path 59" d="M1454.5,1082.788l5.269-13.375-8.949-11.25-5.268,13.374Z" fill="#94a9ba"/>
          <path id="Path_60" data-name="Path 60" d="M1431.336,1073.663l5.269-13.375,14.218-2.125-5.268,13.374Z" fill="#a6bed6"/>
          <path id="Path_61" data-name="Path 61" d="M1431.336,1073.662l14.218-2.125,8.949,11.25h0l-14.218,2.125-8.949-11.25Z" fill="#78909c"/>
        </g>
        <g id="Group_24" data-name="Group 24">
          <path id="Path_62" data-name="Path 62" d="M1496,624.455,1507.7,662.6l38.888,8.936-11.7-38.143Z" fill="#94a9ba"/>
          <path id="Path_63" data-name="Path 63" d="M1562.066,604.181l11.705,38.146-27.182,29.21-11.7-38.143Z" fill="#a6bed6"/>
          <path id="Path_64" data-name="Path 64" d="M1562.066,604.182l-27.182,29.21L1496,624.456v0l27.182-29.21,38.888,8.936Z" fill="#78909c"/>
        </g>
        <g id="Group_25" data-name="Group 25">
          <path id="Path_65" data-name="Path 65" d="M2244.179,1201.135l39.886-1.11,18.981-35.1-39.883,1.11Z" fill="#94a9ba"/>
          <path id="Path_66" data-name="Path 66" d="M2242.256,1132.051l39.886-1.11,20.9,33.987-39.883,1.11Z" fill="#a6bed6"/>
          <path id="Path_67" data-name="Path 67" d="M2242.257,1132.051l20.9,33.987-18.982,35.1h0l-20.9-33.987,18.982-35.1Z" fill="#78909c"/>
        </g>
        <g id="Group_26" data-name="Group 26">
          <path id="Path_68" data-name="Path 68" d="M1396.033,728.466l-16.277,25.253,13.731,26.723,16.276-25.251Z" fill="#94a9ba"/>
          <path id="Path_69" data-name="Path 69" d="M1439.773,756.659,1423.5,781.912l-30.008-1.47,16.276-25.251Z" fill="#a6bed6"/>
          <path id="Path_70" data-name="Path 70" d="M1439.772,756.66l-30.008-1.47-13.731-26.723v0l30.008,1.47,13.731,26.723Z" fill="#78909c"/>
        </g>
        <g id="Group_27" data-name="Group 27">
          <path id="Path_71" data-name="Path 71" d="M1482.095,737.162l4.963,5.43-2.221,7.013-4.963-5.43Z" fill="#94a9ba"/>
          <path id="Path_72" data-name="Path 72" d="M1472.689,745.758l4.963,5.43,7.184-1.583-4.963-5.43Z" fill="#a6bed6"/>
          <path id="Path_73" data-name="Path 73" d="M1472.689,745.759l7.184-1.583,2.221-7.013h0l-7.184,1.583-2.221,7.013Z" fill="#78909c"/>
        </g>
        <g id="Group_28" data-name="Group 28">
          <path id="Path_74" data-name="Path 74" d="M1435.12,649.038l15.564-2.456,9.909,12.251-15.563,2.456Z" fill="#94a9ba"/>
          <path id="Path_75" data-name="Path 75" d="M1439.374,676l15.564-2.456,5.655-14.707-15.563,2.456Z" fill="#a6bed6"/>
          <path id="Path_76" data-name="Path 76" d="M1439.374,676l5.655-14.707-9.909-12.251h0l-5.655,14.707L1439.373,676Z" fill="#78909c"/>
        </g>
        <g id="Group_29" data-name="Group 29">
          <path id="Path_77" data-name="Path 77" d="M1543.043,732.03l16.414,7.562,1.658,18-16.413-7.561Z" fill="#94a9ba"/>
          <path id="Path_78" data-name="Path 78" d="M1529.945,760.46l16.414,7.562,14.756-10.434-16.413-7.561Z" fill="#a6bed6"/>
          <path id="Path_79" data-name="Path 79" d="M1529.946,760.46l14.756-10.434-1.658-18h0l-14.756,10.434,1.658,18Z" fill="#78909c"/>
        </g>
        <g id="Group_30" data-name="Group 30">
          <path id="Path_80" data-name="Path 80" d="M1492.836,639.414l-10.374,12.1,5.29,15.033,10.373-12.1Z" fill="#94a9ba"/>
          <path id="Path_81" data-name="Path 81" d="M1513.79,657.382l-10.374,12.1-15.663-2.935,10.373-12.1Z" fill="#a6bed6"/>
          <path id="Path_82" data-name="Path 82" d="M1513.789,657.382l-15.664-2.935-5.29-15.032h0l15.663,2.935,5.29,15.032Z" fill="#78909c"/>
        </g>
        <g id="Group_31" data-name="Group 31">
          <path id="Path_83" data-name="Path 83" d="M1485.4,599.773l.465,4.656,4.265,1.925-.465-4.656Z" fill="#94a9ba"/>
          <path id="Path_84" data-name="Path 84" d="M1493.461,598.967l.465,4.656-3.8,2.731-.465-4.656Z" fill="#a6bed6"/>
          <path id="Path_85" data-name="Path 85" d="M1493.461,598.967l-3.8,2.731-4.265-1.925h0l3.8-2.731,4.265,1.925Z" fill="#78909c"/>
        </g>
        <g id="Group_32" data-name="Group 32">
          <path id="Path_86" data-name="Path 86" d="M1500.983,283.525,1474.6,313.459l12.732,37.815,26.381-29.932Z" fill="#94a9ba"/>
          <path id="Path_87" data-name="Path 87" d="M1552.83,329.222l-26.383,29.934-39.115-7.882,26.381-29.932Z" fill="#a6bed6"/>
          <path id="Path_88" data-name="Path 88" d="M1552.829,329.223l-39.115-7.882-12.732-37.815,0,0,39.115,7.882,12.732,37.815Z" fill="#78909c"/>
        </g>
        <g id="Group_33" data-name="Group 33">
          <path id="Path_89" data-name="Path 89" d="M1360.042,252.758l-30.037-.658-15.589,25.684,30.035.658Z" fill="#94a9ba"/>
          <path id="Path_90" data-name="Path 90" d="M1358.9,304.784l-30.037-.658-14.448-26.342,30.035.658Z" fill="#a6bed6"/>
          <path id="Path_91" data-name="Path 91" d="M1358.9,304.784l-14.448-26.342,15.589-25.684h0l14.448,26.342L1358.9,304.784Z" fill="#78909c"/>
        </g>
        <g id="Group_34" data-name="Group 34">
          <path id="Path_92" data-name="Path 92" d="M1397.661,330.649l-2.031,7.071-7.139,1.777,2.031-7.07Z" fill="#94a9ba"/>
          <path id="Path_93" data-name="Path 93" d="M1385.414,327.132l-2.031,7.071,5.108,5.294,2.031-7.07Z" fill="#a6bed6"/>
          <path id="Path_94" data-name="Path 94" d="M1385.414,327.132l5.108,5.294,7.139-1.777h0l-5.108-5.294-7.139,1.777Z" fill="#78909c"/>
        </g>
        <g id="Group_35" data-name="Group 35">
          <path id="Path_95" data-name="Path 95" d="M1448.182,244.509l10.236,11.979-5.256,14.854-10.236-11.978Z" fill="#94a9ba"/>
          <path id="Path_96" data-name="Path 96" d="M1427.435,262.239l10.236,11.979,15.492-2.876-10.236-11.978Z" fill="#a6bed6"/>
          <path id="Path_97" data-name="Path 97" d="M1427.435,262.239l15.492-2.876,5.256-14.854h0l-15.492,2.876-5.256,14.854Z" fill="#78909c"/>
        </g>
        <g id="Group_36" data-name="Group 36">
          <path id="Path_98" data-name="Path 98" d="M1433.924,379.9l2.144,17.944L1421.6,408.677l-2.144-17.943Z" fill="#94a9ba"/>
          <path id="Path_99" data-name="Path 99" d="M1402.843,383.618l2.144,17.944,16.612,7.116-2.144-17.943Z" fill="#a6bed6"/>
          <path id="Path_100" data-name="Path 100" d="M1402.843,383.618l16.612,7.116,14.468-10.829h0l-16.612-7.115-14.468,10.829Z" fill="#78909c"/>
        </g>
        <g id="Group_37" data-name="Group 37">
          <path id="Path_101" data-name="Path 101" d="M1486.582,288.659l-15.737-2.511L1460.8,298.522l15.736,2.51Z" fill="#94a9ba"/>
          <path id="Path_102" data-name="Path 102" d="M1482.233,315.917l-15.737-2.511-5.694-14.884,15.736,2.51Z" fill="#a6bed6"/>
          <path id="Path_103" data-name="Path 103" d="M1482.233,315.917l-5.694-14.884,10.043-12.373h0l5.694,14.884-10.043,12.373Z" fill="#78909c"/>
        </g>
        <g id="Group_38" data-name="Group 38">
          <path id="Path_104" data-name="Path 104" d="M1516.471,261.578l-3.724,2.833.591,4.642,3.724-2.832Z" fill="#94a9ba"/>
          <path id="Path_105" data-name="Path 105" d="M1521.378,268.029l-3.724,2.833-4.315-1.809,3.724-2.832Z" fill="#a6bed6"/>
          <path id="Path_106" data-name="Path 106" d="M1521.377,268.029l-4.315-1.809-.591-4.642h0l4.315,1.809.591,4.642Z" fill="#78909c"/>
        </g>
        <g id="Group_39" data-name="Group 39">
          <path id="Path_107" data-name="Path 107" d="M152.4,203.324l11.705,38.146L203,250.406l-11.7-38.143Z" fill="#94a9ba"/>
          <path id="Path_108" data-name="Path 108" d="M218.474,183.05,230.179,221.2,203,250.406l-11.7-38.143Z" fill="#a6bed6"/>
          <path id="Path_109" data-name="Path 109" d="M218.474,183.052l-27.182,29.21L152.4,203.326v0l27.182-29.21,38.888,8.936Z" fill="#78909c"/>
        </g>
        <g id="Group_40" data-name="Group 40">
          <path id="Path_110" data-name="Path 110" d="M73.907,451.425,58.353,468.559,65.414,490.6l15.554-17.133Z" fill="#94a9ba"/>
          <path id="Path_111" data-name="Path 111" d="M103.584,478.366,88.03,495.5l-22.616-4.9,15.554-17.133Z" fill="#a6bed6"/>
          <path id="Path_112" data-name="Path 112" d="M103.584,478.367l-22.616-4.9-7.061-22.038h0l22.616,4.9,7.061,22.038Z" fill="#78909c"/>
        </g>
        <g id="Group_41" data-name="Group 41">
          <path id="Path_113" data-name="Path 113" d="M149.244,218.284l-10.374,12.1,5.29,15.032,10.373-12.1Z" fill="#94a9ba"/>
          <path id="Path_114" data-name="Path 114" d="M170.2,236.251l-10.374,12.1-15.663-2.935,10.373-12.1Z" fill="#a6bed6"/>
          <path id="Path_115" data-name="Path 115" d="M170.2,236.252l-15.663-2.935-5.29-15.033h0l15.663,2.935,5.29,15.032Z" fill="#78909c"/>
        </g>
        <g id="Group_42" data-name="Group 42">
          <path id="Path_116" data-name="Path 116" d="M141.8,178.642l.465,4.656,4.265,1.925-.465-4.656Z" fill="#94a9ba"/>
          <path id="Path_117" data-name="Path 117" d="M149.869,177.836l.465,4.656-3.8,2.731-.465-4.656Z" fill="#a6bed6"/>
          <path id="Path_118" data-name="Path 118" d="M149.869,177.837l-3.8,2.731-4.265-1.925h0l3.8-2.731,4.265,1.925Z" fill="#78909c"/>
        </g>
        <g id="Group_43" data-name="Group 43">
          <path id="Path_119" data-name="Path 119" d="M2847.219,115.846l63.7-47.329,72.84,31.5-63.7,47.326Z" fill="#94a9ba"/>
          <path id="Path_120" data-name="Path 120" d="M2929.2,226.184l63.7-47.329-9.136-78.833-63.7,47.326Z" fill="#a6bed6"/>
          <path id="Path_121" data-name="Path 121" d="M2929.2,226.182l-9.136-78.833-72.84-31.5,0,0,9.136,78.833,72.84,31.5Z" fill="#78909c"/>
        </g>
        <g id="Group_44" data-name="Group 44">
          <path id="Path_122" data-name="Path 122" d="M1466.9,1617.58l11.705,38.146,38.888,8.936-11.7-38.143Z" fill="#94a9ba"/>
          <path id="Path_123" data-name="Path 123" d="M1532.968,1597.306l11.705,38.146-27.182,29.21-11.7-38.143Z" fill="#a6bed6"/>
          <path id="Path_124" data-name="Path 124" d="M1532.969,1597.307l-27.182,29.21-38.888-8.936v0l27.182-29.21,38.888,8.936Z" fill="#78909c"/>
        </g>
        <g id="Group_45" data-name="Group 45">
          <path id="Path_125" data-name="Path 125" d="M1366.936,1721.592l-16.277,25.253,13.731,26.723,16.276-25.251Z" fill="#94a9ba"/>
          <path id="Path_126" data-name="Path 126" d="M1410.675,1749.784l-16.277,25.253-30.008-1.47,16.276-25.251Z" fill="#a6bed6"/>
          <path id="Path_127" data-name="Path 127" d="M1410.674,1749.785l-30.008-1.47-13.731-26.723v0l30.008,1.47,13.731,26.723Z" fill="#78909c"/>
        </g>
        <g id="Group_46" data-name="Group 46">
          <path id="Path_128" data-name="Path 128" d="M1453,1730.287l4.963,5.43-2.221,7.013-4.963-5.43Z" fill="#94a9ba"/>
          <path id="Path_129" data-name="Path 129" d="M1443.591,1738.884l4.963,5.43,7.184-1.583-4.963-5.43Z" fill="#a6bed6"/>
          <path id="Path_130" data-name="Path 130" d="M1443.592,1738.884l7.184-1.583,2.221-7.013h0l-7.184,1.583-2.221,7.013Z" fill="#78909c"/>
        </g>
        <g id="Group_47" data-name="Group 47">
          <path id="Path_131" data-name="Path 131" d="M1406.022,1642.163l15.564-2.456,9.909,12.251-15.563,2.456Z" fill="#94a9ba"/>
          <path id="Path_132" data-name="Path 132" d="M1410.276,1669.121l15.564-2.456,5.655-14.707-15.563,2.456Z" fill="#a6bed6"/>
          <path id="Path_133" data-name="Path 133" d="M1410.276,1669.121l5.655-14.707-9.909-12.251h0l-5.655,14.707,9.909,12.251Z" fill="#78909c"/>
        </g>
        <g id="Group_48" data-name="Group 48">
          <path id="Path_134" data-name="Path 134" d="M1513.945,1725.156l16.414,7.562,1.658,18-16.413-7.561Z" fill="#94a9ba"/>
          <path id="Path_135" data-name="Path 135" d="M1500.848,1753.585l16.414,7.562,14.756-10.434-16.413-7.561Z" fill="#a6bed6"/>
          <path id="Path_136" data-name="Path 136" d="M1500.848,1753.586l14.756-10.434-1.658-18h0l-14.756,10.434,1.658,18Z" fill="#78909c"/>
        </g>
        <g id="Group_49" data-name="Group 49">
          <path id="Path_137" data-name="Path 137" d="M1463.738,1632.539l-10.374,12.1,5.29,15.033,10.373-12.1Z" fill="#94a9ba"/>
          <path id="Path_138" data-name="Path 138" d="M1484.692,1650.507l-10.374,12.1-15.663-2.935,10.373-12.1Z" fill="#a6bed6"/>
          <path id="Path_139" data-name="Path 139" d="M1484.692,1650.507l-15.664-2.935-5.29-15.032h0l15.663,2.935,5.29,15.032Z" fill="#78909c"/>
        </g>
        <g id="Group_50" data-name="Group 50">
          <path id="Path_140" data-name="Path 140" d="M1456.3,1592.9l.465,4.656,4.265,1.925-.465-4.656Z" fill="#94a9ba"/>
          <path id="Path_141" data-name="Path 141" d="M1464.363,1592.092l.465,4.656-3.8,2.731-.465-4.656Z" fill="#a6bed6"/>
          <path id="Path_142" data-name="Path 142" d="M1464.363,1592.092l-3.8,2.731-4.265-1.925h0l3.8-2.731,4.265,1.925Z" fill="#78909c"/>
        </g>
        <g id="Group_51" data-name="Group 51">
          <path id="Path_143" data-name="Path 143" d="M2680.26,226.715l16.856,54.93,56,12.868-16.855-54.927Z" fill="#94a9ba"/>
          <path id="Path_144" data-name="Path 144" d="M2775.4,197.52l16.856,54.93-39.143,42.063-16.855-54.927Z" fill="#a6bed6"/>
          <path id="Path_145" data-name="Path 145" d="M2775.4,197.522l-39.143,42.063-56-12.868v0L2719.4,184.65l56,12.868Z" fill="#78909c"/>
        </g>
        <g id="Group_52" data-name="Group 52">
          <path id="Path_146" data-name="Path 146" d="M2536.313,376.493l-23.439,36.365,19.773,38.481,23.438-36.362Z" fill="#94a9ba"/>
          <path id="Path_147" data-name="Path 147" d="M2599.3,417.091l-23.439,36.365-43.212-2.117,23.438-36.362Z" fill="#a6bed6"/>
          <path id="Path_148" data-name="Path 148" d="M2599.3,417.092l-43.212-2.117-19.773-38.481,0,0,43.212,2.117,19.773,38.481Z" fill="#78909c"/>
        </g>
        <g id="Group_53" data-name="Group 53">
          <path id="Path_149" data-name="Path 149" d="M2660.243,389.015l7.147,7.82-3.2,10.1-7.146-7.819Z" fill="#94a9ba"/>
          <path id="Path_150" data-name="Path 150" d="M2646.7,401.394l7.147,7.82,10.346-2.28-7.146-7.819Z" fill="#a6bed6"/>
          <path id="Path_151" data-name="Path 151" d="M2646.7,401.394l10.346-2.28,3.2-10.1h0l-10.345,2.28-3.2,10.1Z" fill="#78909c"/>
        </g>
        <g id="Group_54" data-name="Group 54">
          <path id="Path_152" data-name="Path 152" d="M2446.006,291.624l22.413-3.536,14.269,17.642-22.411,3.536Z" fill="#94a9ba"/>
          <path id="Path_153" data-name="Path 153" d="M2452.132,330.444l22.413-3.536,8.144-21.178-22.411,3.536Z" fill="#a6bed6"/>
          <path id="Path_154" data-name="Path 154" d="M2452.133,330.444l8.144-21.178-14.269-17.642h0l-8.144,21.178,14.269,17.642Z" fill="#78909c"/>
        </g>
        <g id="Group_55" data-name="Group 55">
          <path id="Path_155" data-name="Path 155" d="M2748.009,381.625l23.636,10.889,2.388,25.914L2750.4,407.54Z" fill="#94a9ba"/>
          <path id="Path_156" data-name="Path 156" d="M2729.148,422.564l23.636,10.889,21.249-15.025L2750.4,407.54Z" fill="#a6bed6"/>
          <path id="Path_157" data-name="Path 157" d="M2729.149,422.565,2750.4,407.54l-2.388-25.914h0L2726.76,396.65l2.388,25.914Z" fill="#78909c"/>
        </g>
        <g id="Group_56" data-name="Group 56">
          <path id="Path_158" data-name="Path 158" d="M2686.539,1325.844l7.108-25.034,25.234-6.361-7.108,25.033Z" fill="#94a9ba"/>
          <path id="Path_159" data-name="Path 159" d="M2729.9,1338.156l7.108-25.034-18.126-18.673-7.108,25.033Z" fill="#a6bed6"/>
          <path id="Path_160" data-name="Path 160" d="M2729.9,1338.156l-18.126-18.673-25.235,6.361v0l18.126,18.673,25.234-6.361Z" fill="#78909c"/>
        </g>
        <g id="Group_57" data-name="Group 57">
          <path id="Path_161" data-name="Path 161" d="M1257.739,1625.425l15.15-53.355,53.781-13.557-15.149,53.351Z" fill="#94a9ba"/>
          <path id="Path_162" data-name="Path 162" d="M1350.152,1651.665l15.15-53.355-38.631-39.8-15.149,53.351Z" fill="#a6bed6"/>
          <path id="Path_163" data-name="Path 163" d="M1350.153,1651.663l-38.632-39.8-53.781,13.557v0l38.631,39.8,53.781-13.557Z" fill="#78909c"/>
        </g>
        <g id="Group_58" data-name="Group 58">
          <path id="Path_164" data-name="Path 164" d="M2675.71,248.256l-14.938,17.421,7.618,21.647,14.937-17.419Z" fill="#94a9ba"/>
          <path id="Path_165" data-name="Path 165" d="M2705.884,274.13l-14.938,17.421-22.556-4.226,14.937-17.419Z" fill="#a6bed6"/>
          <path id="Path_166" data-name="Path 166" d="M2705.883,274.13l-22.556-4.226-7.618-21.647h0l22.556,4.226,7.617,21.647Z" fill="#78909c"/>
        </g>
        <g id="Group_59" data-name="Group 59">
          <path id="Path_167" data-name="Path 167" d="M2982.833,254.378l.67,6.7,6.141,2.772-.67-6.7Z" fill="#94a9ba"/>
          <path id="Path_168" data-name="Path 168" d="M2994.446,253.217l.67,6.7-5.471,3.933-.67-6.7Z" fill="#a6bed6"/>
          <path id="Path_169" data-name="Path 169" d="M2994.446,253.218l-5.471,3.933-6.141-2.772h0l5.471-3.933,6.141,2.772Z" fill="#78909c"/>
        </g>
        <g id="Group_60" data-name="Group 60">
          <path id="Path_170" data-name="Path 170" d="M1915.368,1029.271l.67,6.7,6.141,2.772-.67-6.7Z" fill="#94a9ba"/>
          <path id="Path_171" data-name="Path 171" d="M1926.981,1028.11l.67,6.7-5.471,3.932-.67-6.7Z" fill="#a6bed6"/>
          <path id="Path_172" data-name="Path 172" d="M1926.981,1028.111l-5.471,3.933-6.141-2.772h0l5.471-3.932,6.141,2.772Z" fill="#78909c"/>
        </g>
        <g id="Group_61" data-name="Group 61">
          <path id="Path_173" data-name="Path 173" d="M797.4,1504.168l.67,6.7,6.141,2.772-.67-6.7Z" fill="#94a9ba"/>
          <path id="Path_174" data-name="Path 174" d="M809.014,1503.007l.67,6.7-5.471,3.933-.67-6.7Z" fill="#a6bed6"/>
          <path id="Path_175" data-name="Path 175" d="M809.014,1503.008l-5.471,3.932-6.141-2.772h0l5.471-3.932,6.141,2.772Z" fill="#78909c"/>
        </g>
        <g id="Group_62" data-name="Group 62">
          <path id="Path_176" data-name="Path 176" d="M2628.514,610.663l-5.847,64.618,53.037,37.372,5.846-64.613Z" fill="#94a9ba"/>
          <path id="Path_177" data-name="Path 177" d="M2740.435,620.79l-5.847,64.618L2675.7,712.653l5.846-64.613Z" fill="#a6bed6"/>
          <path id="Path_178" data-name="Path 178" d="M2740.435,620.792l-58.884,27.245-53.037-37.372v0l58.884-27.245,53.037,37.372Z" fill="#78909c"/>
        </g>
        <g id="Group_63" data-name="Group 63">
          <path id="Path_179" data-name="Path 179" d="M2399.9,560.518l-40.035,28,4.23,48.67,40.032-28Z" fill="#94a9ba"/>
          <path id="Path_180" data-name="Path 180" d="M2448.393,629.86l-40.035,28-44.264-20.672,40.032-28Z" fill="#a6bed6"/>
          <path id="Path_181" data-name="Path 181" d="M2448.392,629.861l-44.264-20.672-4.23-48.67,0,0,44.265,20.672,4.229,48.67Z" fill="#78909c"/>
        </g>
        <g id="Group_64" data-name="Group 64">
          <path id="Path_182" data-name="Path 182" d="M2538.258,771.759l4.13,11.227-7.658,9.19-4.13-11.226Z" fill="#94a9ba"/>
          <path id="Path_183" data-name="Path 183" d="M2518.813,778.913l4.13,11.227,11.788,2.037-4.13-11.226Z" fill="#a6bed6"/>
          <path id="Path_184" data-name="Path 184" d="M2518.813,778.913l11.788,2.037,7.658-9.19h0l-11.788-2.037-7.658,9.19Z" fill="#78909c"/>
        </g>
        <g id="Group_65" data-name="Group 65">
          <path id="Path_185" data-name="Path 185" d="M2521.762,610.218,2546.7,616.1l7.379,24.536-24.936-5.877Z" fill="#94a9ba"/>
          <path id="Path_186" data-name="Path 186" d="M2511.581,653.411l24.938,5.878,17.559-18.658-24.936-5.877Z" fill="#a6bed6"/>
          <path id="Path_187" data-name="Path 187" d="M2511.582,653.411l17.559-18.658-7.379-24.536h0L2504.2,628.875l7.379,24.536Z" fill="#78909c"/>
        </g>
        <g id="Group_66" data-name="Group 66">
          <path id="Path_188" data-name="Path 188" d="M2633.154,801.528l20.055,21.479-8.574,28.107-20.053-21.478Z" fill="#94a9ba"/>
          <path id="Path_189" data-name="Path 189" d="M2595.951,836.263l20.054,21.479,28.629-6.628-20.053-21.478Z" fill="#a6bed6"/>
          <path id="Path_190" data-name="Path 190" d="M2595.952,836.264l28.629-6.628,8.574-28.107h0l-28.629,6.628-8.574,28.107Z" fill="#78909c"/>
        </g>
        <g id="Group_67" data-name="Group 67">
          <path id="Path_191" data-name="Path 191" d="M2614.556,631.236,2591.5,643.064l-1.285,25.881,23.054-11.827Z" fill="#94a9ba"/>
          <path id="Path_192" data-name="Path 192" d="M2635.043,671.171,2611.987,683l-21.771-14.053,23.054-11.827Z" fill="#a6bed6"/>
          <path id="Path_193" data-name="Path 193" d="M2635.042,671.171l-21.771-14.053,1.285-25.881h0l21.771,14.053-1.285,25.881Z" fill="#78909c"/>
        </g>
        <g id="Group_68" data-name="Group 68">
          <path id="Path_194" data-name="Path 194" d="M2627.744,566.992l-2.164,7.294,5.235,5.521,2.164-7.294Z" fill="#94a9ba"/>
          <path id="Path_195" data-name="Path 195" d="M2640.378,570.739l-2.164,7.294-7.4,1.773,2.164-7.294Z" fill="#a6bed6"/>
          <path id="Path_196" data-name="Path 196" d="M2640.378,570.74l-7.4,1.773-5.235-5.521h0l7.4-1.773,5.235,5.521Z" fill="#78909c"/>
        </g>
        <g id="Group_69" data-name="Group 69">
          <path id="Path_197" data-name="Path 197" d="M1112.516,1894.226l77.346.776,39.344-66.6-77.341-.775Z" fill="#94a9ba"/>
          <path id="Path_198" data-name="Path 198" d="M1113.859,1760.259l77.346.776,38,67.371-77.341-.775Z" fill="#a6bed6"/>
          <path id="Path_199" data-name="Path 199" d="M1113.862,1760.259l38,67.371-39.344,66.6h-.005l-38-67.371,39.344-66.6Z" fill="#78909c"/>
        </g>
        <g id="Group_70" data-name="Group 70">
          <path id="Path_200" data-name="Path 200" d="M2851.219,481.349l7.049,35.606,34.361,11.7-7.049-35.6Z" fill="#94a9ba"/>
          <path id="Path_201" data-name="Path 201" d="M2912.89,469.139l7.05,35.606-27.311,23.908-7.049-35.6Z" fill="#a6bed6"/>
          <path id="Path_202" data-name="Path 202" d="M2912.89,469.14l-27.311,23.908-34.36-11.7v0l27.311-23.908,34.36,11.7Z" fill="#78909c"/>
        </g>
        <g id="Group_71" data-name="Group 71">
          <path id="Path_203" data-name="Path 203" d="M2933.3,416.676l8.87.554,3.956,7.959-8.87-.553Z" fill="#94a9ba"/>
          <path id="Path_204" data-name="Path 204" d="M2932.346,432.04l8.87.554,4.915-7.405-8.87-.553Z" fill="#a6bed6"/>
          <path id="Path_205" data-name="Path 205" d="M2932.346,432.04l4.915-7.405-3.956-7.959h0l-4.915,7.405,3.956,7.959Z" fill="#78909c"/>
        </g>
        <g id="Group_72" data-name="Group 72">
          <path id="Path_206" data-name="Path 206" d="M2981.962,361.064l20.61-7.2,16.544,14.247-20.609,7.2Z" fill="#94a9ba"/>
          <path id="Path_207" data-name="Path 207" d="M2994.441,396.762l20.61-7.2,4.066-21.451-20.609,7.2Z" fill="#a6bed6"/>
          <path id="Path_208" data-name="Path 208" d="M2994.441,396.762l4.066-21.451-16.544-14.247h0l-4.066,21.451,16.544,14.247Z" fill="#78909c"/>
        </g>
        <g id="Group_73" data-name="Group 73">
          <path id="Path_209" data-name="Path 209" d="M2778.928,1788.194l34.937,41.742,53.618-9.385-34.935-41.739Z" fill="#94a9ba"/>
          <path id="Path_210" data-name="Path 210" d="M2851.227,1727.682l34.937,41.742-18.681,51.127-34.935-41.739Z" fill="#a6bed6"/>
          <path id="Path_211" data-name="Path 211" d="M2851.228,1727.683l-18.681,51.127-53.618,9.385,0,0,18.681-51.127,53.618-9.385Z" fill="#78909c"/>
        </g>
        <g id="Group_74" data-name="Group 74">
          <path id="Path_212" data-name="Path 212" d="M2559.913,1961.814l-6.625,20.706,14.619,16.091,6.625-20.7Z" fill="#94a9ba"/>
          <path id="Path_213" data-name="Path 213" d="M2595.777,1973.29,2589.151,1994l-21.244,4.615,6.625-20.7Z" fill="#a6bed6"/>
          <path id="Path_214" data-name="Path 214" d="M2595.777,1973.291l-21.245,4.615-14.619-16.091h0l21.245-4.615,14.619,16.091Z" fill="#78909c"/>
        </g>
        <g id="Group_75" data-name="Group 75">
          <path id="Path_215" data-name="Path 215" d="M2529.545,1915.931l3.053,5.606,6.381.159-3.053-5.605Z" fill="#94a9ba"/>
          <path id="Path_216" data-name="Path 216" d="M2539.254,1910.642l3.053,5.606-3.328,5.447-3.053-5.605Z" fill="#a6bed6"/>
          <path id="Path_217" data-name="Path 217" d="M2539.255,1910.643l-3.328,5.447-6.381-.159h0l3.328-5.447,6.381.159Z" fill="#78909c"/>
        </g>
        <g id="Group_76" data-name="Group 76">
          <path id="Path_218" data-name="Path 218" d="M2464.539,960.272l.787,7.879,7.217,3.258-.787-7.878Z" fill="#94a9ba"/>
          <path id="Path_219" data-name="Path 219" d="M2478.185,958.908l.787,7.879-6.43,4.621-.787-7.878Z" fill="#a6bed6"/>
          <path id="Path_220" data-name="Path 220" d="M2478.185,958.909l-6.43,4.621-7.217-3.258h0l6.43-4.621,7.217,3.258Z" fill="#78909c"/>
        </g>
        <g id="Group_77" data-name="Group 77">
          <path id="Path_221" data-name="Path 221" d="M2965.8,530.776l.787,7.879,7.217,3.258-.787-7.878Z" fill="#94a9ba"/>
          <path id="Path_222" data-name="Path 222" d="M2979.444,529.413l.787,7.879-6.43,4.621-.787-7.878Z" fill="#a6bed6"/>
          <path id="Path_223" data-name="Path 223" d="M2979.444,529.413l-6.43,4.621-7.217-3.258h0l6.43-4.621,7.217,3.258Z" fill="#78909c"/>
        </g>
        <g id="Group_78" data-name="Group 78">
          <path id="Path_224" data-name="Path 224" d="M784.631,1191.362l6.047-25.488-19.05-17.981-6.047,25.486Z" fill="#94a9ba"/>
          <path id="Path_225" data-name="Path 225" d="M740.484,1180.888l6.047-25.488,25.1-7.507-6.047,25.486Z" fill="#a6bed6"/>
          <path id="Path_226" data-name="Path 226" d="M740.484,1180.887l25.1-7.507,19.05,17.981v0l-25.1,7.507-19.05-17.981Z" fill="#78909c"/>
        </g>
        <g id="Group_79" data-name="Group 79">
          <path id="Path_227" data-name="Path 227" d="M711.353,1209.209l-5.657-3.023-.211-6.411,5.657,3.023Z" fill="#94a9ba"/>
          <path id="Path_228" data-name="Path 228" d="M716.589,1199.41l-5.657-3.023-5.447,3.388,5.657,3.023Z" fill="#a6bed6"/>
          <path id="Path_229" data-name="Path 229" d="M716.589,1199.41l-5.447,3.388.211,6.411h0l5.447-3.388-.211-6.411Z" fill="#78909c"/>
        </g>
        <g id="Group_80" data-name="Group 80">
          <path id="Path_230" data-name="Path 230" d="M662.738,1231.129l-15.69-1.449-6.59-14.313,15.689,1.449Z" fill="#94a9ba"/>
          <path id="Path_231" data-name="Path 231" d="M665.248,1203.953l-15.69-1.449-9.1,12.863,15.689,1.449Z" fill="#a6bed6"/>
          <path id="Path_232" data-name="Path 232" d="M665.248,1203.953l-9.1,12.863,6.59,14.313h0l9.1-12.863-6.59-14.313Z" fill="#78909c"/>
        </g>
        <g id="Group_81" data-name="Group 81">
          <path id="Path_233" data-name="Path 233" d="M684.763,1076.27l-9.695-38.07-37.817-10.639,9.694,38.067Z" fill="#94a9ba"/>
          <path id="Path_234" data-name="Path 234" d="M618.825,1093.062l-9.695-38.07,28.122-27.431,9.694,38.067Z" fill="#a6bed6"/>
          <path id="Path_235" data-name="Path 235" d="M618.824,1093.06l28.122-27.431,37.817,10.639v0L656.642,1103.7l-37.817-10.639Z" fill="#78909c"/>
        </g>
        <g id="Group_82" data-name="Group 82">
          <path id="Path_236" data-name="Path 236" d="M745.8,1054.993l-15.423,1.674-9.161-12.519,15.422-1.674Z" fill="#94a9ba"/>
          <path id="Path_237" data-name="Path 237" d="M742.9,1028.281l-15.423,1.674-6.261,14.193,15.422-1.674Z" fill="#a6bed6"/>
          <path id="Path_238" data-name="Path 238" d="M742.9,1028.281l-6.261,14.193,9.161,12.519h0l6.261-14.193-9.161-12.519Z" fill="#78909c"/>
        </g>
        <g id="Group_83" data-name="Group 83">
          <path id="Path_239" data-name="Path 239" d="M688.582,1061.709l10.777-11.4-4.486-15.035-10.776,11.4Z" fill="#94a9ba"/>
          <path id="Path_240" data-name="Path 240" d="M668.832,1043.043l10.777-11.4,15.264,3.632-10.776,11.4Z" fill="#a6bed6"/>
          <path id="Path_241" data-name="Path 241" d="M668.833,1043.042l15.264,3.632,4.486,15.035h0l-15.264-3.632-4.486-15.035Z" fill="#78909c"/>
        </g>
        <g id="Group_84" data-name="Group 84">
          <path id="Path_242" data-name="Path 242" d="M694.011,1101.047l-.236-4.6-4.1-2.1.236,4.6Z" fill="#94a9ba"/>
          <path id="Path_243" data-name="Path 243" d="M686.042,1101.455l-.236-4.6,3.866-2.5.236,4.6Z" fill="#a6bed6"/>
          <path id="Path_244" data-name="Path 244" d="M686.042,1101.455l3.866-2.5,4.1,2.1h0l-3.866,2.5-4.1-2.1Z" fill="#78909c"/>
        </g>
        <g id="Group_85" data-name="Group 85">
          <path id="Path_245" data-name="Path 245" d="M583.7,1195.013,572.5,1176.107l-21.976.252,11.205,18.9Z" fill="#94a9ba"/>
          <path id="Path_246" data-name="Path 246" d="M550.956,1214.422l-11.206-18.906,10.77-19.157,11.205,18.9Z" fill="#a6bed6"/>
          <path id="Path_247" data-name="Path 247" d="M550.956,1214.422l10.77-19.157,21.976-.252h0l-10.77,19.157-21.976.252Z" fill="#78909c"/>
        </g>
        <g id="Group_86" data-name="Group 86">
          <path id="Path_248" data-name="Path 248" d="M549.883,1248.491l-5.176,1.473-3.864-3.746,5.175-1.473Z" fill="#94a9ba"/>
          <path id="Path_249" data-name="Path 249" d="M547.331,1239.526,542.155,1241l-1.312,5.219,5.175-1.473Z" fill="#a6bed6"/>
          <path id="Path_250" data-name="Path 250" d="M547.331,1239.526l-1.312,5.219,3.864,3.746h0l1.312-5.219-3.864-3.746Z" fill="#78909c"/>
        </g>
        <g id="Group_87" data-name="Group 87">
          <path id="Path_251" data-name="Path 251" d="M533.32,1290.053l-10.313,8.27-12.319-4.8L521,1285.257Z" fill="#94a9ba"/>
          <path id="Path_252" data-name="Path 252" d="M519,1272.19l-10.313,8.27,2.005,13.067L521,1285.257Z" fill="#a6bed6"/>
          <path id="Path_253" data-name="Path 253" d="M519,1272.19,521,1285.257l12.319,4.8h0l-2.005-13.067L519,1272.19Z" fill="#78909c"/>
        </g>
        <g id="Group_88" data-name="Group 88">
          <path id="Path_254" data-name="Path 254" d="M508.32,1189.9l-2.039-4.339-4.777-.4,2.038,4.339Z" fill="#94a9ba"/>
          <path id="Path_255" data-name="Path 255" d="M500.8,1193.435l-2.039-4.339,2.739-3.935,2.038,4.339Z" fill="#a6bed6"/>
          <path id="Path_256" data-name="Path 256" d="M500.8,1193.435l2.739-3.935,4.777.4h0l-2.739,3.935-4.777-.4Z" fill="#78909c"/>
        </g>
        <g id="Group_98" data-name="Group 98">
          <path id="Path_265" data-name="Path 265" d="M1035.678,1113.55,992.92,1050.8l32.966-68.406,75.725-5.654,42.758,62.753L1111.4,1107.9Zm-39.3-63.011,40.808,59.89,72.27-5.395,31.463-65.286-40.808-59.89-72.27,5.4Z" fill="#fecb00"/>
        </g>
        <g id="Group_99" data-name="Group 99">
          <path id="Path_266" data-name="Path 266" d="M1104.9,1032.237l-33.771-31.965,10.8-45.229,44.568-13.265,33.772,31.965-10.8,45.229Zm-30.451-32.953,31.256,29.584,41.248-12.277,9.992-41.86-31.256-29.583-41.248,12.276Z" fill="#fecb00"/>
        </g>
        <g id="Group_100" data-name="Group 100">
          <path id="Path_267" data-name="Path 267" d="M2602.771,1246.909l-103.833-.3-51.658-90.072,52.176-89.773,103.833.3,51.658,90.071Zm-102.093-3.294,100.369.289,50.436-86.777-49.935-87.067-100.369-.29-50.435,86.778Z" fill="#fecb00"/>
        </g>
        <g id="Group_101" data-name="Group 101">
          <path id="Path_268" data-name="Path 268" d="M2310.181,276.467l-25.6-12.081-2.337-28.212,23.263-16.13,25.6,12.082,2.337,28.211Zm-22.754-14.055,22.467,10.6,20.417-14.156-2.051-24.76-22.468-10.6-20.417,14.157Z" fill="#fecb00"/>
        </g>
        <g id="Group_102" data-name="Group 102">
          <path id="Path_269" data-name="Path 269" d="M2460.96,1291.865l-42.492-46.961,19.423-60.279,61.916-13.319,42.492,46.961-19.424,60.279Zm-39.1-47.69,40.167,44.393,58.529-12.59L2538.912,1219l-40.167-44.393-58.529,12.59Z" fill="#fecb00"/>
        </g>
        <g id="Group_103" data-name="Group 103">
          <path id="Path_270" data-name="Path 270" d="M1579.654,1556.866l-19.149-21.163,8.753-27.165,27.9-6,19.149,21.164-8.753,27.165Zm-15.763-21.892,16.825,18.595,24.516-5.273,7.691-23.869-16.825-18.595-24.516,5.274Z" fill="#fecb00"/>
        </g>
        <g id="Group_104" data-name="Group 104">
          <path id="Path_271" data-name="Path 271" d="M90.605,1877.169l-14.652-16.193,6.7-20.786L104,1835.6l14.652,16.194-6.7,20.786Zm-11.266-16.922,12.329,13.625,17.963-3.864,5.636-17.489-12.328-13.625-17.964,3.864Z" fill="#fecb00"/>
        </g>
        <g id="Group_105" data-name="Group 105">
          <path id="Path_272" data-name="Path 272" d="M683.364,1526.419,660.1,1500.713l10.632-32.995,33.891-7.29,23.259,25.705-10.632,33Zm-19.872-26.434,20.935,23.137,30.5-6.562,9.57-29.7-20.935-23.136-30.5,6.561Z" fill="#fecb00"/>
        </g>
        <g id="Group_106" data-name="Group 106">
          <path id="Path_273" data-name="Path 273" d="M2328,193.89l-11.836-9.744,2.521-15.122,14.357-5.378,11.835,9.744-2.521,15.122Zm-8.592-10.96,9.162,7.543,11.112-4.163,1.951-11.705-9.161-7.542-11.113,4.162Z" fill="#fecb00"/>
        </g>
        <path id="Path_274" data-name="Path 274" d="M2912.9,647.242l-27.1,28.814-38.5-9.063,27.1-28.812Z" fill="#fecb00"/>
        <path id="Path_275" data-name="Path 275" d="M636.111,1402.838l-27.1,28.814-38.5-9.063,27.1-28.812Z" fill="#fecb00"/>
        <path id="Path_276" data-name="Path 276" d="M338.258,183.311l-27.1,28.814-38.5-9.063,27.1-28.812Z" fill="#fecb00"/>
        <path id="Path_277" data-name="Path 277" d="M764.86,1949.574l-27.1,28.814-38.5-9.063,27.1-28.812Z" fill="#fecb00"/>
        <path id="Path_278" data-name="Path 278" d="M1399.738,1229.65l-27.1,28.814-38.5-9.063,27.1-28.812Z" fill="#fecb00"/>
        <path id="Path_279" data-name="Path 279" d="M2645.432,745.314l-27.1,28.814-38.5-9.063,27.1-28.812Z" fill="#fecb00"/>
        <path id="Path_280" data-name="Path 280" d="M1870.11,1818.529l-27.1,28.814-38.5-9.063,27.1-28.812Z" fill="#fecb00"/>
      </g>
    </g>
  </g>
</svg>
